<svg xmlns="http://www.w3.org/2000/svg" xmlns:xlink="http://www.w3.org/1999/xlink" width="2000" zoomAndPan="magnify" viewBox="0 0 1500 1499.999933" height="2000" preserveAspectRatio="xMidYMid meet" version="1.0"><defs><g/><clipPath id="0c0550aaad"><path d="M 0.691406 0.691406 L 1288.46875 0.691406 L 1288.46875 1288.46875 L 0.691406 1288.46875 Z M 0.691406 0.691406 " clip-rule="nonzero"/></clipPath><clipPath id="66ed16e68a"><path d="M 221.414062 175.242188 L 867 175.242188 L 867 931.640625 L 221.414062 931.640625 Z M 221.414062 175.242188 " clip-rule="nonzero"/></clipPath><clipPath id="a997e0c13d"><path d="M 494.207031 333 L 878 333 L 878 931.640625 L 494.207031 931.640625 Z M 494.207031 333 " clip-rule="nonzero"/></clipPath><clipPath id="bdede04c5d"><path d="M 714 647 L 1151.945312 647 L 1151.945312 931.640625 L 714 931.640625 Z M 714 647 " clip-rule="nonzero"/></clipPath><clipPath id="2b2def31b3"><path d="M 776 175.242188 L 1016 175.242188 L 1016 614 L 776 614 Z M 776 175.242188 " clip-rule="nonzero"/></clipPath><clipPath id="dfd5a89e21"><path d="M 849 768 L 1016 768 L 1016 931.640625 L 849 931.640625 Z M 849 768 " clip-rule="nonzero"/></clipPath><clipPath id="3f5ebf4d0f"><rect x="0" width="850" y="0" height="343"/></clipPath><clipPath id="c8037de67a"><rect x="0" width="1290" y="0" height="1291"/></clipPath></defs><g transform="matrix(1, 0, 0, 1, 105, 105)"><g clip-path="url(#c8037de67a)"><g clip-path="url(#0c0550aaad)"><path fill="#000000" d="M 1289.324219 645 C 1289.324219 1000.84375 1000.855469 1289.316406 645.011719 1289.316406 C 289.164062 1289.316406 0.695312 1000.84375 0.695312 645 C 0.695312 289.15625 289.164062 0.6875 645.011719 0.6875 C 1000.855469 0.6875 1289.324219 289.15625 1289.324219 645 M 1270.832031 645 C 1270.832031 299.367188 990.644531 19.179688 645.011719 19.179688 C 299.378906 19.179688 19.1875 299.367188 19.1875 645 C 19.1875 990.632812 299.378906 1270.824219 645.011719 1270.824219 C 990.644531 1270.824219 1270.832031 990.632812 1270.832031 645 Z M 1270.832031 645 " fill-opacity="1" fill-rule="nonzero"/></g><g clip-path="url(#66ed16e68a)"><path fill="#000000" d="M 221.710938 175.242188 L 221.710938 203.765625 L 298.296875 203.765625 L 298.296875 902.210938 L 236.515625 902.210938 L 236.515625 931.640625 L 476.246094 931.640625 L 476.246094 902.210938 L 417.183594 902.210938 L 417.183594 544.535156 L 642.867188 544.535156 L 642.867188 503.335938 L 417.183594 503.335938 L 417.183594 203.765625 L 625.945312 203.765625 C 742.113281 203.765625 796.945312 260.210938 822.171875 347.136719 L 866.738281 347.136719 L 866.738281 175.242188 Z M 221.710938 175.242188 " fill-opacity="1" fill-rule="nonzero"/></g><g clip-path="url(#a997e0c13d)"><path fill="#000000" d="M 589.996094 931.039062 C 591.480469 929.878906 592.585938 928.15625 593.582031 925.851562 C 640.507812 817.25 687.578125 708.703125 734.628906 600.152344 C 740.84375 585.792969 747.097656 571.449219 754.003906 555.5625 C 755.886719 558.609375 756.976562 560.003906 757.664062 561.566406 C 764.40625 576.761719 771.222656 591.9375 777.726562 607.226562 C 779.8125 612.140625 782.765625 614.171875 788.277344 614.117188 C 814.230469 613.898438 840.167969 614.097656 866.121094 614.042969 C 869.527344 614.042969 872.9375 613.5 877.921875 613.082031 C 837.230469 519.113281 797.085938 426.433594 756.957031 333.734375 C 756.140625 333.550781 755.328125 333.351562 754.527344 333.171875 C 667.859375 532.242188 581.167969 731.3125 494.207031 931.039062 Z M 589.996094 931.039062 " fill-opacity="1" fill-rule="nonzero"/></g><g clip-path="url(#bdede04c5d)"><path fill="#000000" d="M 958.375 733.945312 C 966.292969 733.90625 970.464844 736.191406 973.707031 743.773438 C 999.535156 804.230469 1025.851562 864.453125 1051.898438 924.820312 C 1053.164062 927.773438 1054.617188 929.824219 1056.789062 931.039062 L 1151.871094 931.039062 C 1150.765625 928.101562 1150.183594 926.414062 1149.496094 924.78125 C 1136.773438 895.222656 1124.066406 865.667969 1111.289062 836.125 C 1085.300781 776.050781 1059.273438 715.972656 1033.320312 655.878906 C 1031.269531 651.128906 1029.1875 647.882812 1022.789062 647.898438 C 934.578125 648.152344 846.367188 648.097656 758.136719 647.988281 C 753.0625 647.988281 750.359375 649.53125 748.332031 654.425781 C 739.867188 674.828125 730.914062 695.027344 722.175781 715.339844 C 719.675781 721.160156 717.285156 727.035156 714.328125 734.125 C 719.765625 734.125 723.554688 734.125 727.34375 734.125 C 804.335938 734.105469 881.34375 734.199219 958.375 733.945312 Z M 958.375 733.945312 " fill-opacity="1" fill-rule="nonzero"/></g><g clip-path="url(#2b2def31b3)"><path fill="#000000" d="M 1015.828125 613.554688 C 1009.175781 613.554688 1004.882812 613.554688 1000.585938 613.554688 C 975.738281 613.554688 950.890625 613.335938 926.039062 613.679688 C 919.625 613.773438 916.363281 611.613281 913.824219 605.738281 C 876.308594 519.167969 838.570312 432.707031 800.890625 346.210938 C 793.042969 328.203125 785.085938 310.25 777.511719 292.132812 C 776.40625 289.488281 776.078125 285.625 777.167969 283.085938 C 791.703125 248.957031 806.527344 214.976562 821.355469 180.976562 C 822.042969 179.378906 823.492188 178.109375 825.25 175.808594 C 888.742188 321.65625 951.8125 466.542969 1015.828125 613.554688 Z M 1015.828125 613.554688 " fill-opacity="1" fill-rule="nonzero"/></g><g clip-path="url(#dfd5a89e21)"><path fill="#000000" d="M 917.957031 926.847656 C 918.808594 928.824219 919.824219 930.132812 921.039062 931.039062 L 1015.847656 931.039062 C 1015.265625 929.371094 1014.921875 928.226562 1014.46875 927.195312 C 992.304688 875.910156 970.191406 824.613281 947.699219 773.476562 C 946.59375 770.972656 941.988281 768.613281 938.980469 768.5625 C 914.964844 768.160156 890.933594 768.34375 866.902344 768.34375 C 861.515625 768.34375 856.132812 768.34375 849.699219 768.34375 C 850.425781 771.191406 850.550781 772.277344 850.988281 773.238281 C 873.316406 824.414062 895.773438 875.566406 917.957031 926.847656 Z M 917.957031 926.847656 " fill-opacity="1" fill-rule="nonzero"/></g><g transform="matrix(1, 0, 0, 1, 221, 932)"><g clip-path="url(#3f5ebf4d0f)"><g fill="#000000" fill-opacity="1"><g transform="translate(35.107596, 87.914014)"><g><path d="M 12.4375 13.765625 L 12.15625 13.390625 C 11.707031 12.804688 11.972656 11.953125 12.953125 10.828125 C 13.296875 10.429688 13.675781 10.078125 14.09375 9.765625 C 14.363281 9.429688 14.742188 9.078125 15.234375 8.703125 L 51.796875 -19.15625 L 66.46875 0.109375 L 67.984375 2.09375 C 68.421875 2.664062 68.753906 3.191406 68.984375 3.671875 C 70.359375 5.484375 70.867188 6.914062 70.515625 7.96875 L 71.265625 8.953125 L 75.34375 5.84375 L 74.59375 4.859375 C 73.851562 4.773438 72.769531 4.035156 71.34375 2.640625 C 71.03125 2.234375 70.71875 1.820312 70.40625 1.40625 C 70.007812 1.0625 69.5625 0.5625 69.0625 -0.09375 L 53.53125 -20.484375 L 89.59375 -47.96875 L 109.640625 -21.65625 L 110.859375 -20.046875 C 111.171875 -19.628906 111.441406 -19.1875 111.671875 -18.71875 L 113.5625 -16.25 C 114.25 -15.34375 114.632812 -14.664062 114.71875 -14.21875 C 115.476562 -13.21875 116.03125 -12.066406 116.375 -10.765625 C 116.539062 -10.367188 116.726562 -9.867188 116.9375 -9.265625 C 117.125 -9.015625 117.238281 -8.773438 117.28125 -8.546875 C 117.332031 -8.316406 117.335938 -8.050781 117.296875 -7.75 L 118.046875 -6.765625 L 121.625 -9.5 L 85.296875 -57.171875 L 84.0625 -56.234375 L 84.15625 -56.109375 C 84.59375 -55.546875 84.234375 -54.820312 83.078125 -53.9375 C 82.859375 -53.375 82.109375 -52.738281 80.828125 -52.03125 L 9.921875 2 L 8.6875 2.9375 C 8.269531 3.257812 7.796875 3.488281 7.265625 3.625 C 6.191406 4.445312 5.46875 4.617188 5.09375 4.140625 L 5 4.015625 L 3.765625 4.953125 L 11.203125 14.703125 Z M 12.4375 13.765625 "/></g></g></g><g fill="#000000" fill-opacity="1"><g transform="translate(92.082248, 157.24358)"><g><path d="M 7.734375 2.53125 C 6.785156 3.5 6.085938 3.769531 5.640625 3.34375 L 5.53125 3.234375 L 4.453125 4.34375 L 12.578125 12.25 L 13.65625 11.140625 L 13.53125 11.03125 C 13.238281 10.738281 13.492188 9.960938 14.296875 8.703125 C 14.648438 8.335938 15.007812 7.96875 15.375 7.59375 C 15.59375 7.21875 15.914062 6.8125 16.34375 6.375 L 74.96875 -53.828125 C 75.757812 -54.640625 76.476562 -55.300781 77.125 -55.8125 C 77.707031 -56.414062 78.21875 -56.941406 78.65625 -57.390625 C 79.226562 -57.828125 79.695312 -58.234375 80.0625 -58.609375 L 80.8125 -59.375 C 81.976562 -60.132812 82.671875 -60.40625 82.890625 -60.1875 L 83.015625 -60.078125 L 84.09375 -61.171875 L 75.96875 -69.078125 L 74.890625 -67.984375 L 75 -67.875 C 75.519531 -67.375 75.269531 -66.597656 74.25 -65.546875 C 74.113281 -64.960938 73.46875 -64.226562 72.3125 -63.34375 L 10.109375 0.53125 L 9.03125 1.640625 C 8.664062 2.015625 8.234375 2.3125 7.734375 2.53125 Z M 7.734375 2.53125 "/></g></g></g><g fill="#000000" fill-opacity="1"><g transform="translate(126.247182, 191.47695)"><g><path d="M 66.09375 45.03125 C 66.507812 44.8125 66.800781 44.570312 66.96875 44.3125 C 67.601562 43.75 68.035156 43.296875 68.265625 42.953125 C 68.535156 42.742188 68.757812 42.515625 68.9375 42.265625 C 69.113281 42.003906 69.320312 41.773438 69.5625 41.578125 L 69.1875 41.3125 C 69.082031 41.113281 68.769531 40.835938 68.25 40.484375 L 67.984375 40.3125 C 67.273438 40.457031 66.5625 40.410156 65.84375 40.171875 C 65.0625 40.003906 64.316406 39.8125 63.609375 39.59375 L 62.96875 39.140625 C 62.707031 38.972656 62.3125 38.828125 61.78125 38.703125 C 61.519531 38.523438 61.257812 38.347656 61 38.171875 C 60.59375 38.023438 60.15625 37.851562 59.6875 37.65625 L 58.640625 36.953125 C 58.296875 36.722656 57.882812 36.503906 57.40625 36.296875 L 56.109375 35.421875 C 55.679688 35.117188 55.179688 34.835938 54.609375 34.578125 L 17.125 9.046875 L 125.609375 -38.4375 L 73 -74.296875 L 72.8125 -74.046875 C 72.757812 -73.953125 72.523438 -73.789062 72.109375 -73.5625 C 71.878906 -73.226562 71.460938 -72.894531 70.859375 -72.5625 L 70.40625 -71.90625 C 70.238281 -71.65625 69.984375 -71.457031 69.640625 -71.3125 L 70.671875 -70.609375 C 71.046875 -70.609375 71.390625 -70.566406 71.703125 -70.484375 C 71.953125 -70.304688 72.191406 -70.203125 72.421875 -70.171875 C 72.796875 -70.160156 73.113281 -70.066406 73.375 -69.890625 C 73.539062 -69.773438 73.738281 -69.703125 73.96875 -69.671875 C 74.65625 -69.578125 75.21875 -69.382812 75.65625 -69.09375 C 76.445312 -68.8125 77.015625 -68.550781 77.359375 -68.3125 C 77.898438 -68.1875 78.597656 -67.832031 79.453125 -67.25 L 81.515625 -65.859375 C 81.828125 -65.773438 82.285156 -65.523438 82.890625 -65.109375 C 83.398438 -64.765625 83.753906 -64.457031 83.953125 -64.1875 L 115.140625 -42.953125 L 6.671875 4.546875 Z M 66.09375 45.03125 "/></g></g></g><g fill="#000000" fill-opacity="1"><g transform="translate(225.085003, 254.357731)"><g><path d="M 40.640625 -92.65625 L 40.796875 -92.59375 C 41.378906 -92.382812 41.421875 -91.59375 40.921875 -90.21875 C 41.054688 -89.632812 40.773438 -88.691406 40.078125 -87.390625 L 9.71875 -3.5625 L 9.203125 -2.109375 C 9.023438 -1.617188 8.75 -1.171875 8.375 -0.765625 C 7.914062 0.503906 7.441406 1.050781 6.953125 0.875 L 6.796875 0.8125 L 6.265625 2.265625 L 11.234375 4.0625 L 11.765625 2.609375 L 11.625 2.5625 C 11.238281 2.425781 11.144531 1.617188 11.34375 0.140625 C 11.519531 -0.335938 11.695312 -0.820312 11.875 -1.3125 C 11.925781 -1.738281 12.054688 -2.242188 12.265625 -2.828125 L 42.25 -85.625 L 72.578125 28.09375 L 75.359375 29.09375 L 106.875 -57.921875 C 107.351562 -58.960938 107.78125 -59.851562 108.15625 -60.59375 C 108.4375 -61.375 108.6875 -62.0625 108.90625 -62.65625 C 109.238281 -63.289062 109.492188 -63.851562 109.671875 -64.34375 C 109.722656 -64.769531 109.800781 -65.128906 109.90625 -65.421875 C 110.457031 -66.648438 110.976562 -67.175781 111.46875 -67 L 111.625 -66.953125 L 112.15625 -68.40625 L 107.1875 -70.203125 L 106.65625 -68.75 L 106.796875 -68.6875 C 107.484375 -68.445312 107.578125 -67.640625 107.078125 -66.265625 C 107.191406 -65.679688 106.90625 -64.742188 106.21875 -63.453125 L 77.828125 14.96875 L 49.65625 -91.03125 L 41.171875 -94.109375 Z M 40.640625 -92.65625 "/></g></g></g><g fill="#000000" fill-opacity="1"><g transform="translate(334.206428, 289.792109)"><g><path d="M 19.890625 -97.171875 C 20.148438 -96.628906 20.097656 -95.648438 19.734375 -94.234375 L 9.984375 -5.609375 L 9.8125 -4.078125 C 9.75 -3.554688 9.59375 -3.054688 9.34375 -2.578125 C 9.195312 -1.222656 8.816406 -0.578125 8.203125 -0.640625 L 8.046875 -0.671875 L 7.875 0.859375 L 19.140625 2.109375 L 19.3125 0.578125 L 19.171875 0.5625 C 18.859375 0.519531 18.625 -0.242188 18.46875 -1.734375 L 18.640625 -3.265625 C 18.679688 -3.679688 18.6875 -4.195312 18.65625 -4.8125 L 18.890625 -6.984375 C 18.984375 -7.804688 19.023438 -8.6875 19.015625 -9.625 L 22.8125 -44.046875 L 41.96875 -41.9375 C 44.425781 -41.664062 47.3125 -41.453125 50.625 -41.296875 C 53.832031 -41.054688 57.117188 -41.0625 60.484375 -41.3125 C 63.734375 -41.570312 66.820312 -42.222656 69.75 -43.265625 C 72.675781 -44.296875 75.035156 -45.851562 76.828125 -47.9375 C 78.984375 -50.425781 80.4375 -53.238281 81.1875 -56.375 C 81.945312 -59.414062 82.492188 -62.484375 82.828125 -65.578125 C 83.472656 -71.441406 83.457031 -76.023438 82.78125 -79.328125 C 82.257812 -83.140625 80.773438 -86.21875 78.328125 -88.5625 C 76.097656 -91 72.875 -92.921875 68.65625 -94.328125 C 66.863281 -95.035156 64.535156 -95.65625 61.671875 -96.1875 C 61.066406 -96.351562 60.453125 -96.472656 59.828125 -96.546875 L 57.515625 -96.796875 L 19.078125 -101.03125 L 18.90625 -99.484375 L 19.0625 -99.453125 C 19.769531 -99.378906 20.046875 -98.617188 19.890625 -97.171875 Z M 49.78125 -43.421875 C 48.625 -43.441406 47.429688 -43.519531 46.203125 -43.65625 C 44.960938 -43.6875 43.625 -43.78125 42.1875 -43.9375 L 23.03125 -46.046875 L 28.71875 -97.765625 L 52.65625 -95.140625 L 56.203125 -94.75 C 57.234375 -94.632812 58.195312 -94.425781 59.09375 -94.125 C 60.125 -93.90625 61.039062 -93.695312 61.84375 -93.5 C 62.5625 -93.320312 63.304688 -93.03125 64.078125 -92.625 C 66.898438 -91.695312 69.164062 -89.992188 70.875 -87.515625 C 72.695312 -85.222656 73.738281 -82.398438 74 -79.046875 C 74.4375 -77.328125 74.535156 -75.382812 74.296875 -73.21875 C 74.285156 -72.1875 74.222656 -71.15625 74.109375 -70.125 L 73.71875 -66.578125 C 73.382812 -63.484375 72.914062 -60.613281 72.3125 -57.96875 C 71.601562 -55.34375 70.625 -53.0625 69.375 -51.125 C 68.113281 -49.164062 66.425781 -47.578125 64.3125 -46.359375 C 62.1875 -45.035156 59.429688 -44.144531 56.046875 -43.6875 Z M 49.78125 -43.421875 "/></g></g></g><g fill="#000000" fill-opacity="1"><g transform="translate(435.852759, 296.830203)"><g><path d="M 7.09375 -3.953125 C 7.164062 -2.597656 6.894531 -1.90625 6.28125 -1.875 L 6.125 -1.875 L 6.203125 -0.328125 L 17.515625 -0.90625 L 17.4375 -2.453125 L 17.296875 -2.453125 C 16.878906 -2.429688 16.484375 -3.140625 16.109375 -4.578125 C 16.078125 -5.085938 16.050781 -5.601562 16.03125 -6.125 C 15.894531 -6.53125 15.8125 -7.039062 15.78125 -7.65625 L 11.4375 -91.578125 C 11.375 -92.710938 11.375 -93.691406 11.4375 -94.515625 C 11.394531 -95.347656 11.359375 -96.078125 11.328125 -96.703125 C 11.390625 -97.429688 11.410156 -98.054688 11.390625 -98.578125 L 11.328125 -99.640625 C 11.566406 -101.003906 11.84375 -101.695312 12.15625 -101.71875 L 12.296875 -101.71875 L 12.203125 -103.265625 L 0.890625 -102.6875 L 0.984375 -101.140625 L 1.140625 -101.140625 C 1.859375 -101.179688 2.253906 -100.476562 2.328125 -99.03125 C 2.660156 -98.53125 2.765625 -97.550781 2.640625 -96.09375 L 7.25 -7.046875 L 7.328125 -5.515625 C 7.359375 -4.992188 7.28125 -4.472656 7.09375 -3.953125 Z M 7.09375 -3.953125 "/></g></g></g><g fill="#000000" fill-opacity="1"><g transform="translate(484.060781, 294.942498)"><g><path d="M -15.90625 -99.921875 L -15.75 -99.953125 C -15.132812 -100.085938 -14.664062 -99.441406 -14.34375 -98.015625 C -13.925781 -97.597656 -13.660156 -96.660156 -13.546875 -95.203125 L 6.234375 -8.265625 L 6.578125 -6.765625 C 6.691406 -6.253906 6.707031 -5.722656 6.625 -5.171875 C 6.925781 -3.859375 6.820312 -3.144531 6.3125 -3.03125 L 6.15625 -3 L 6.5 -1.484375 L 11.65625 -2.65625 L 11.3125 -4.171875 L 11.15625 -4.140625 C 10.757812 -4.046875 10.25 -4.671875 9.625 -6.015625 C 9.507812 -6.515625 9.394531 -7.019531 9.28125 -7.53125 C 9.082031 -7.914062 8.914062 -8.40625 8.78125 -9 L -10.765625 -94.859375 L 76.25 -15.609375 L 79.125 -16.265625 L 58.578125 -106.515625 C 58.421875 -107.640625 58.304688 -108.613281 58.234375 -109.4375 C 58.046875 -110.25 57.882812 -110.960938 57.75 -111.578125 C 57.675781 -112.304688 57.582031 -112.925781 57.46875 -113.4375 C 57.28125 -113.8125 57.15625 -114.144531 57.09375 -114.4375 C 56.882812 -115.789062 57.035156 -116.523438 57.546875 -116.640625 L 57.703125 -116.671875 L 57.359375 -118.171875 L 52.203125 -117 L 52.546875 -115.5 L 52.703125 -115.53125 C 53.410156 -115.695312 53.925781 -115.066406 54.25 -113.640625 C 54.664062 -113.210938 54.929688 -112.269531 55.046875 -110.8125 L 73.5625 -29.484375 L -7.453125 -103.421875 L -16.25 -101.421875 Z M -15.90625 -99.921875 "/></g></g></g><g fill="#000000" fill-opacity="1"><g transform="translate(594.381828, 265.633292)"><g><path d="M -3.640625 -109.71875 L -1.8125 -110.59375 C -1.34375 -110.820312 -0.851562 -111 -0.34375 -111.125 L 2.453125 -112.484375 C 3.472656 -112.984375 4.210938 -113.226562 4.671875 -113.21875 C 5.785156 -113.757812 7.019531 -114.066406 8.375 -114.140625 C 8.78125 -114.222656 9.3125 -114.316406 9.96875 -114.421875 C 10.25 -114.554688 10.503906 -114.617188 10.734375 -114.609375 C 10.960938 -114.609375 11.21875 -114.5625 11.5 -114.46875 L 12.609375 -115 L 10.65625 -119.046875 L -39.09375 -94.953125 L -38.421875 -93.5625 L -38.28125 -93.625 C -37.632812 -93.9375 -36.992188 -93.4375 -36.359375 -92.125 C -35.859375 -91.800781 -35.382812 -90.941406 -34.9375 -89.546875 L 3.9375 -9.3125 L 4.609375 -7.921875 C 4.835938 -7.453125 4.96875 -6.945312 5 -6.40625 C 5.59375 -5.1875 5.613281 -4.441406 5.0625 -4.171875 L 4.921875 -4.109375 L 5.59375 -2.71875 L 56.046875 -27.15625 C 55.953125 -27.34375 55.929688 -27.503906 55.984375 -27.640625 C 55.984375 -27.640625 55.960938 -27.6875 55.921875 -27.78125 C 55.921875 -28.019531 55.875 -28.113281 55.78125 -28.0625 L 55.703125 -28.203125 C 55.710938 -28.890625 55.582031 -29.515625 55.3125 -30.078125 C 55.21875 -30.492188 55.035156 -30.976562 54.765625 -31.53125 C 54.316406 -31.539062 54.046875 -31.523438 53.953125 -31.484375 C 53.765625 -31.390625 53.710938 -31.25 53.796875 -31.0625 C 53.328125 -30.601562 52.953125 -30.191406 52.671875 -29.828125 C 52.535156 -29.648438 52.328125 -29.492188 52.046875 -29.359375 C 51.765625 -29.222656 51.53125 -28.992188 51.34375 -28.671875 C 51.101562 -28.441406 50.660156 -28.054688 50.015625 -27.515625 L 49.171875 -27.09375 C 48.890625 -26.957031 48.5625 -26.6875 48.1875 -26.28125 C 47.4375 -25.914062 46.644531 -25.53125 45.8125 -25.125 C 44.925781 -24.582031 44.132812 -24.082031 43.4375 -23.625 L 41.890625 -22.875 C 41.335938 -22.613281 40.753906 -22.273438 40.140625 -21.859375 L 13.59375 -9 L -8.8125 -55.265625 L 14.375 -66.5 L 16.609375 -67.59375 C 17.265625 -67.90625 17.847656 -68.128906 18.359375 -68.265625 C 20.410156 -69.253906 21.914062 -69.46875 22.875 -68.90625 L 24 -69.453125 L 21.765625 -74.0625 L 20.640625 -73.515625 C 20.410156 -72.816406 19.476562 -71.898438 17.84375 -70.765625 C 17.375 -70.535156 16.90625 -70.304688 16.4375 -70.078125 C 16.007812 -69.765625 15.421875 -69.425781 14.671875 -69.0625 L -9.765625 -57.21875 L -29.203125 -97.328125 Z M -3.640625 -109.71875 "/></g></g></g><g fill="#000000" fill-opacity="1"><g transform="translate(677.132722, 221.824115)"><g/></g></g><g fill="#000000" fill-opacity="1"><g transform="translate(729.063033, 184.318119)"><g><path d="M 5.0625 -5.265625 L 3.953125 -6.34375 L 3.734375 -6.109375 C 3.515625 -5.890625 2.878906 -6.5 1.828125 -7.9375 C 1.367188 -8.8125 0.71875 -10.007812 -0.125 -11.53125 C -0.945312 -12.914062 -1.96875 -14.691406 -3.1875 -16.859375 L -14.265625 -38.0625 L 12.75 -66.15625 L 37.015625 -55.3125 C 40.929688 -53.71875 43.515625 -52.53125 44.765625 -51.75 C 46.109375 -51.1875 46.632812 -50.753906 46.34375 -50.453125 L 46.234375 -50.34375 L 47.34375 -49.265625 L 55.53125 -57.78125 L 54.421875 -58.859375 L 54.3125 -58.75 C 54.09375 -58.519531 53.46875 -58.46875 52.4375 -58.59375 C 52.0625 -58.8125 51.328125 -59.085938 50.234375 -59.421875 C 49.117188 -59.765625 48.378906 -59.972656 48.015625 -60.046875 L -47.703125 -101.640625 L -49.21875 -100.078125 L -3.96875 -12.65625 C -3.519531 -11.800781 -3.066406 -11.003906 -2.609375 -10.265625 C -2.234375 -9.460938 -1.894531 -8.703125 -1.59375 -7.984375 C -1.28125 -7.398438 -1.046875 -6.890625 -0.890625 -6.453125 C -0.648438 -5.953125 -0.421875 -5.453125 -0.203125 -4.953125 C 0.335938 -3.566406 0.460938 -2.722656 0.171875 -2.421875 L 0.078125 -2.3125 L 1.1875 -1.234375 Z M -42 -90.78125 L 10.515625 -67.203125 L -15.40625 -40.234375 Z M -42 -90.78125 "/></g></g></g><g fill="#000000" fill-opacity="1"><g transform="translate(799.471547, 104.654427)"><g><path d="M 1.15625 -8.046875 C 2.269531 -7.285156 2.65625 -6.648438 2.3125 -6.140625 L 2.21875 -6.015625 L 3.5 -5.140625 L 9.890625 -14.484375 L 8.609375 -15.359375 L 8.53125 -15.234375 C 8.289062 -14.890625 7.488281 -15.003906 6.125 -15.578125 C 5.695312 -15.859375 5.269531 -16.148438 4.84375 -16.453125 C 4.4375 -16.597656 3.976562 -16.84375 3.46875 -17.1875 L -65.921875 -64.578125 C -66.859375 -65.222656 -67.632812 -65.816406 -68.25 -66.359375 C -68.9375 -66.835938 -69.539062 -67.25 -70.0625 -67.59375 C -70.601562 -68.082031 -71.085938 -68.472656 -71.515625 -68.765625 L -72.40625 -69.375 C -73.34375 -70.394531 -73.722656 -71.035156 -73.546875 -71.296875 L -73.46875 -71.421875 L -74.75 -72.296875 L -81.140625 -62.953125 L -79.859375 -62.078125 L -79.765625 -62.203125 C -79.359375 -62.796875 -78.554688 -62.679688 -77.359375 -61.859375 C -76.753906 -61.828125 -75.914062 -61.316406 -74.84375 -60.328125 L -1.21875 -10.046875 L 0.0625 -9.171875 C 0.488281 -8.878906 0.851562 -8.503906 1.15625 -8.046875 Z M 1.15625 -8.046875 "/></g></g></g></g></g></g></g></svg>